<svg width="396" height="670" viewBox="0 0 396 670" fill="none" xmlns="http://www.w3.org/2000/svg">
<g clip-path="url(#clip0_163_270)">
<path d="M206 288.8L205.44 137.56C205.44 137.56 311.25 86.46 263.44 0.26001C263.44 0.26001 143.99 5.00002 187.21 130.17C230.43 255.34 188.44 135.74 188.44 135.74C188.44 135.74 191.37 150.01 185.69 149.88C180.01 149.75 141.3 116.59 95.9201 125.88C95.9201 125.88 69.0801 217.09 185.92 240.72L186.25 286.02L183.25 285.89H205" fill="#A1D6BB"/>
<path d="M186.15 118.16L191.22 152.72L205.66 196.51V88.37L186.15 118.16Z" fill="#A1D6BB"/>
<path d="M375.71 285.84H19.83C8.87819 285.84 0 294.718 0 305.67V354.94C0 365.892 8.87819 374.77 19.83 374.77H375.71C386.662 374.77 395.54 365.892 395.54 354.94V305.67C395.54 294.718 386.662 285.84 375.71 285.84Z" fill="#F29B71"/>
<path d="M36.7598 374.76L61.6298 645.74L333.87 642.45L354.93 374.76H36.7598Z" fill="#F29B71"/>
<path d="M61.6299 645.74C61.6299 645.74 69.3099 660.51 82.0999 666C94.8899 671.49 308.2 668.24 308.2 668.24C308.2 668.24 332.47 664.16 332.09 643.83C331.71 623.5 90.6499 622.83 90.6499 622.83L61.6299 645.74Z" fill="#F29B71"/>
<path d="M190.95 286.35H374.06C379.757 286.35 385.221 288.613 389.249 292.641C393.277 296.67 395.54 302.133 395.54 307.83V353.28C395.54 358.977 393.277 364.44 389.249 368.469C385.221 372.497 379.757 374.76 374.06 374.76H190.95C188.563 374.76 186.274 373.812 184.586 372.124C182.898 370.436 181.95 368.147 181.95 365.76V295.35C181.95 292.963 182.898 290.674 184.586 288.986C186.274 287.298 188.563 286.35 190.95 286.35Z" fill="#E08B65"/>
<path d="M348.89 375.5H41.9699C39.7221 375.5 37.8999 377.322 37.8999 379.57V394.72C37.8999 396.968 39.7221 398.79 41.9699 398.79H348.89C351.138 398.79 352.96 396.968 352.96 394.72V379.57C352.96 377.322 351.138 375.5 348.89 375.5Z" fill="#CC7350"/>
<path d="M189.64 392.46L188.9 374.76H354.93L353.9 394.71L189.64 392.46Z" fill="#B96545"/>
<path d="M353 398.79H189.3L186.15 667.79C186.149 667.983 186.185 668.174 186.258 668.352C186.331 668.53 186.438 668.692 186.574 668.829C186.71 668.965 186.871 669.074 187.049 669.148C187.227 669.222 187.417 669.26 187.61 669.26H311.49C316.196 669.259 320.764 667.665 324.449 664.738C328.135 661.811 330.722 657.724 331.79 653.14C332.48 650.14 333.18 646.66 333.87 642.5C338.05 617.21 354.93 374.81 354.93 374.81" fill="#CC7350"/>
<path d="M352.43 375.48H191.39C190.015 375.48 188.9 376.595 188.9 377.97V396.29C188.9 397.665 190.015 398.78 191.39 398.78H352.43C353.805 398.78 354.92 397.665 354.92 396.29V377.97C354.92 376.595 353.805 375.48 352.43 375.48Z" fill="#B96545"/>
<path d="M196.09 129.7L265.22 0C265.22 0 316.16 94.7 203.52 137.72C198.45 139.65 193.65 134.27 196.09 129.7Z" fill="#51BE93"/>
<path d="M190 232L95.22 125.68C95.1929 125.652 95.1593 125.632 95.1222 125.621C95.0852 125.609 95.0459 125.608 95.008 125.616C94.9701 125.624 94.9348 125.641 94.9054 125.666C94.876 125.691 94.8535 125.724 94.8399 125.76C92.8399 132.66 68.24 237.12 183.71 240.97C189.39 241.16 193.34 235.79 190 232Z" fill="#51BE93"/>
</g>
<defs>
<clipPath id="clip0_163_270">
<rect width="395.54" height="669.21" fill="white"/>
</clipPath>
</defs>
</svg>
